HIERARCHY
ROOT Hips
{
	OFFSET 0.000000 100.481300 0.000000
	CHANNELS 6 Xposition Yposition Zposition Xrotation Yrotation Zrotation
	JOINT Spine
	{
		OFFSET -0.279200 12.230698 -2.892100
		CHANNELS 3 Xrotation Yrotation Zrotation
		JOINT Spine1
		{
			OFFSET -0.325700 14.269203 -3.374200
			CHANNELS 3 Xrotation Yrotation Zrotation
			JOINT Spine2
			{
				OFFSET -0.372300 16.307602 -0.352600
				CHANNELS 3 Xrotation Yrotation Zrotation
				JOINT Neck
				{
					OFFSET -0.418800 17.814194 8.416900
					CHANNELS 3 Xrotation Yrotation Zrotation
					JOINT Head
					{
						OFFSET 0.000000 7.031097 3.806800
						CHANNELS 3 Xrotation Yrotation Zrotation
						JOINT HeadTop_End
						{
							OFFSET 0.000000 24.646606 12.978600
							CHANNELS 3 Xrotation Yrotation Zrotation
							End Site
							{
								OFFSET 0.000000 27.854965 0.000000
							}
						}
					}
				}
				JOINT LeftShoulder
				{
					OFFSET 16.952999 14.495407 -7.737500
					CHANNELS 3 Xrotation Yrotation Zrotation
					JOINT LeftArm
					{
						OFFSET 9.308998 -2.777710 0.208600
						CHANNELS 3 Xrotation Yrotation Zrotation
						JOINT LeftForeArm
						{
							OFFSET 29.972298 0.000000 0.000000
							CHANNELS 3 Xrotation Yrotation Zrotation
							JOINT LeftHand
							{
								OFFSET 26.026505 0.000000 0.000000
								CHANNELS 3 Xrotation Yrotation Zrotation
								JOINT LeftHandThumb1
								{
									OFFSET 12.240501 -7.147949 9.207150
									CHANNELS 3 Xrotation Yrotation Zrotation
									JOINT LeftHandThumb2
									{
										OFFSET 4.138618 -2.389435 2.389433
										CHANNELS 3 Xrotation Yrotation Zrotation
										JOINT LeftHandThumb3
										{
											OFFSET 2.726913 -1.574387 1.574386
											CHANNELS 3 Xrotation Yrotation Zrotation
											JOINT LeftHandThumb4
											{
												OFFSET 3.941010 -2.275345 2.275342
												CHANNELS 3 Xrotation Yrotation Zrotation
												End Site
												{
													OFFSET -0.005798 5.087799 0.009903
												}
											}
										}
									}
								}
								JOINT LeftHandIndex1
								{
									OFFSET 24.424698 -1.985611 5.953459
									CHANNELS 3 Xrotation Yrotation Zrotation
									JOINT LeftHandIndex2
									{
										OFFSET 6.426697 0.000000 0.000000
										CHANNELS 3 Xrotation Yrotation Zrotation
										JOINT LeftHandIndex3
										{
											OFFSET 5.337898 0.000000 0.000000
											CHANNELS 3 Xrotation Yrotation Zrotation
											JOINT LeftHandIndex4
											{
												OFFSET 4.409401 0.000000 0.000000
												CHANNELS 3 Xrotation Yrotation Zrotation
												End Site
												{
													OFFSET 0.000000 4.409363 0.014373
												}
											}
										}
									}
								}
								JOINT LeftHandMiddle1
								{
									OFFSET 23.810104 0.000000 0.000000
									CHANNELS 3 Xrotation Yrotation Zrotation
									JOINT LeftHandMiddle2
									{
										OFFSET 7.176498 0.000000 0.000000
										CHANNELS 3 Xrotation Yrotation Zrotation
										JOINT LeftHandMiddle3
										{
											OFFSET 6.774902 0.000000 0.000000
											CHANNELS 3 Xrotation Yrotation Zrotation
											JOINT LeftHandMiddle4
											{
												OFFSET 5.403328 0.000000 0.000000
												CHANNELS 3 Xrotation Yrotation Zrotation
												End Site
												{
													OFFSET -0.027702 5.403244 0.017414
												}
											}
										}
									}
								}
								JOINT LeftHandRing1
								{
									OFFSET 22.908401 -0.839279 -6.020567
									CHANNELS 3 Xrotation Yrotation Zrotation
									JOINT LeftHandRing2
									{
										OFFSET 6.337502 0.000000 0.000000
										CHANNELS 3 Xrotation Yrotation Zrotation
										JOINT LeftHandRing3
										{
											OFFSET 5.779297 0.000000 0.000000
											CHANNELS 3 Xrotation Yrotation Zrotation
											JOINT LeftHandRing4
											{
												OFFSET 4.965698 0.000000 0.000000
												CHANNELS 3 Xrotation Yrotation Zrotation
												End Site
												{
													OFFSET 0.000000 4.965668 0.016186
												}
											}
										}
									}
								}
								JOINT LeftHandPinky1
								{
									OFFSET 20.037003 -1.530319 -10.950146
									CHANNELS 3 Xrotation Yrotation Zrotation
									JOINT LeftHandPinky2
									{
										OFFSET 5.254700 0.000000 0.000000
										CHANNELS 3 Xrotation Yrotation Zrotation
										JOINT LeftHandPinky3
										{
											OFFSET 4.810204 0.000000 0.000000
											CHANNELS 3 Xrotation Yrotation Zrotation
											JOINT LeftHandPinky4
											{
												OFFSET 3.647202 0.000000 0.000000
												CHANNELS 3 Xrotation Yrotation Zrotation
												End Site
												{
													OFFSET 0.000000 3.647186 0.011889
												}
											}
										}
									}
								}
							}
						}
					}
				}
				JOINT RightShoulder
				{
					OFFSET -15.141001 14.495407 -7.737500
					CHANNELS 3 Xrotation Yrotation Zrotation
					JOINT RightArm
					{
						OFFSET -9.308998 -2.777710 0.208500
						CHANNELS 3 Xrotation Yrotation Zrotation
						JOINT RightForeArm
						{
							OFFSET -29.972300 0.000000 0.000000
							CHANNELS 3 Xrotation Yrotation Zrotation
							JOINT RightHand
							{
								OFFSET -26.026505 0.000000 0.000000
								CHANNELS 3 Xrotation Yrotation Zrotation
								JOINT RightHandThumb1
								{
									OFFSET -12.240601 -7.148026 9.207092
									CHANNELS 3 Xrotation Yrotation Zrotation
									JOINT RightHandThumb2
									{
										OFFSET -4.138618 -2.389435 2.389433
										CHANNELS 3 Xrotation Yrotation Zrotation
										JOINT RightHandThumb3
										{
											OFFSET -2.726974 -1.574417 1.574421
											CHANNELS 3 Xrotation Yrotation Zrotation
											JOINT RightHandThumb4
											{
												OFFSET -3.941010 -2.275345 2.275343
												CHANNELS 3 Xrotation Yrotation Zrotation
												End Site
												{
													OFFSET 0.005814 5.087799 0.009927
												}
											}
										}
									}
								}
								JOINT RightHandIndex1
								{
									OFFSET -24.424698 -1.985657 5.953444
									CHANNELS 3 Xrotation Yrotation Zrotation
									JOINT RightHandIndex2
									{
										OFFSET -6.426697 0.000000 0.000000
										CHANNELS 3 Xrotation Yrotation Zrotation
										JOINT RightHandIndex3
										{
											OFFSET -5.337898 0.000000 0.000000
											CHANNELS 3 Xrotation Yrotation Zrotation
											JOINT RightHandIndex4
											{
												OFFSET -4.409401 0.000000 0.000000
												CHANNELS 3 Xrotation Yrotation Zrotation
												End Site
												{
													OFFSET 0.000000 4.409363 0.014408
												}
											}
										}
									}
								}
								JOINT RightHandMiddle1
								{
									OFFSET -23.810097 0.000000 0.000000
									CHANNELS 3 Xrotation Yrotation Zrotation
									JOINT RightHandMiddle2
									{
										OFFSET -7.176498 0.000000 0.000000
										CHANNELS 3 Xrotation Yrotation Zrotation
										JOINT RightHandMiddle3
										{
											OFFSET -6.774902 0.000000 0.000000
											CHANNELS 3 Xrotation Yrotation Zrotation
											JOINT RightHandMiddle4
											{
												OFFSET -5.403328 0.000000 0.000000
												CHANNELS 3 Xrotation Yrotation Zrotation
												End Site
												{
													OFFSET 0.027702 5.403244 0.017457
												}
											}
										}
									}
								}
								JOINT RightHandRing1
								{
									OFFSET -22.908302 -0.839325 -6.020576
									CHANNELS 3 Xrotation Yrotation Zrotation
									JOINT RightHandRing2
									{
										OFFSET -6.337502 0.000000 0.000000
										CHANNELS 3 Xrotation Yrotation Zrotation
										JOINT RightHandRing3
										{
											OFFSET -5.779297 0.000000 0.000000
											CHANNELS 3 Xrotation Yrotation Zrotation
											JOINT RightHandRing4
											{
												OFFSET -4.965698 0.000000 0.000000
												CHANNELS 3 Xrotation Yrotation Zrotation
												End Site
												{
													OFFSET 0.000000 4.965668 0.016226
												}
											}
										}
									}
								}
								JOINT RightHandPinky1
								{
									OFFSET -20.037003 -1.530334 -10.950259
									CHANNELS 3 Xrotation Yrotation Zrotation
									JOINT RightHandPinky2
									{
										OFFSET -5.254700 0.000000 0.000000
										CHANNELS 3 Xrotation Yrotation Zrotation
										JOINT RightHandPinky3
										{
											OFFSET -4.810204 0.000000 0.000000
											CHANNELS 3 Xrotation Yrotation Zrotation
											JOINT RightHandPinky4
											{
												OFFSET -3.647202 0.000000 0.000000
												CHANNELS 3 Xrotation Yrotation Zrotation
												End Site
												{
													OFFSET 0.000000 3.647186 0.011917
												}
											}
										}
									}
								}
							}
						}
					}
				}
			}
		}
	}
	JOINT LeftUpLeg
	{
		OFFSET 15.427100 -6.655098 0.678600
		CHANNELS 3 Xrotation Yrotation Zrotation
		JOINT LeftLeg
		{
			OFFSET 4.081073 -39.591068 13.024000
			CHANNELS 3 Xrotation Yrotation Zrotation
			JOINT LeftFoot
			{
				OFFSET -4.081074 -37.707932 -15.979700
				CHANNELS 3 Xrotation Yrotation Zrotation
				JOINT LeftToeBase
				{
					OFFSET 5.346399 -15.068900 20.645000
					CHANNELS 3 Xrotation Yrotation Zrotation
					JOINT LeftToe_End
					{
						OFFSET 2.754700 0.931300 11.300900
						CHANNELS 3 Xrotation Yrotation Zrotation
						End Site
						{
							OFFSET 0.000000 11.669021 0.000000
						}
					}
				}
			}
		}
	}
	JOINT RightUpLeg
	{
		OFFSET -15.569500 -6.655098 0.678600
		CHANNELS 3 Xrotation Yrotation Zrotation
		JOINT RightLeg
		{
			OFFSET -4.081825 -39.591045 13.023800
			CHANNELS 3 Xrotation Yrotation Zrotation
			JOINT RightFoot
			{
				OFFSET 4.081824 -37.707954 -15.979600
				CHANNELS 3 Xrotation Yrotation Zrotation
				JOINT RightToeBase
				{
					OFFSET -5.346400 -15.068900 20.645000
					CHANNELS 3 Xrotation Yrotation Zrotation
					JOINT RightToe_End
					{
						OFFSET -2.754700 0.931300 11.300900
						CHANNELS 3 Xrotation Yrotation Zrotation
						End Site
						{
							OFFSET 0.000000 11.669021 0.000000
						}
					}
				}
			}
		}
	}
}
MOTION
Frames: 5
Frame Time: 0.033333
-2.196618 97.155846 -3.355678 -3.991685 -5.770332 1.957075 3.960294 -1.168885 -2.052992 7.886792 -2.228042 -1.924223 7.863008 -2.257999 -1.985644 -9.381591 2.479505 0.815852 -2.945397 13.145765 1.266499 0.000000 0.000000 -0.000000 0.717040 2.762133 -10.864457 29.363297 -40.339760 -31.958756 -0.000003 -37.290142 -0.000000 -31.302695 29.935367 -4.337118 -1.576616 6.464796 6.555605 4.951270 20.653256 1.661270 -0.004914 7.912480 3.153460 -0.000003 -0.000000 0.000002 0.027930 0.620800 -5.151180 0.022808 0.561290 -4.656291 0.005710 0.280873 -2.328117 -0.000002 0.000000 -0.000000 0.027756 0.618873 -5.135205 0.022969 0.563209 -4.672265 0.005701 0.280867 -2.328130 -0.000001 0.000002 -0.000001 0.027930 0.620800 -5.151178 0.022810 0.561290 -4.656290 0.005706 0.280868 -2.328120 -0.000001 -0.000001 0.000000 0.374807 4.660256 -4.656754 0.009789 -3.493188 -5.165415 0.005711 0.280881 -2.328110 0.000001 0.000001 -0.000001 4.228842 11.258262 -1.634903 40.765523 23.542235 50.412933 -0.000106 81.369765 0.000113 12.943434 -14.135629 10.637315 -1.870509 -5.340829 -6.859518 5.724950 -20.964415 -1.035381 -0.711919 -6.011281 -2.744643 -0.000000 -0.000000 -0.000001 0.558399 -2.734788 23.076706 0.550266 -2.715618 22.905258 0.138843 -1.385366 11.446110 -0.000001 0.000002 0.000001 0.558400 -2.734787 23.076708 0.550264 -2.715616 22.905258 0.138840 -1.385379 11.446112 -0.000001 -0.000001 0.000005 0.558402 -2.734789 23.076708 0.550269 -2.715614 22.905260 0.138842 -1.385368 11.446110 0.000001 -0.000001 -0.000003 0.558399 -2.734788 23.076708 0.550269 -2.715620 22.905255 0.138840 -1.385364 11.446112 -0.000002 0.000001 0.000002 -4.323648 8.446706 2.703302 9.509261 4.161403 3.617906 -0.425928 1.837996 -6.985277 -0.191503 0.000003 0.000001 0.000000 -0.000000 -0.000000 -5.693879 -12.079602 -2.385597 14.244113 -9.419306 -4.865622 -5.336922 -2.807605 3.799607 -0.374801 -0.000006 0.000001 -0.000000 -0.000001 -0.000000 
-1.638076 97.084198 -3.443918 -4.103891 -5.742379 2.010521 3.952336 -1.168500 -2.079724 7.899863 -2.259927 -1.964300 7.879449 -2.289600 -2.012576 -9.436560 2.397718 0.915457 -2.630335 12.928818 1.040966 0.000000 0.000000 -0.000000 0.713683 2.670941 -10.500891 29.499522 -40.895867 -32.270981 -0.000000 -37.119100 -0.000002 -30.768885 30.403545 -5.187434 -1.578998 6.604551 6.576542 4.969983 20.905957 1.677734 0.005883 8.038518 3.165104 0.000001 -0.000001 0.000002 0.024544 0.582121 -4.829545 0.019800 0.522904 -4.337235 0.004946 0.261636 -2.168574 0.000001 0.000000 0.000000 0.024389 0.580205 -4.813557 0.019949 0.524822 -4.353212 0.004947 0.261631 -2.168575 -0.000003 -0.000000 0.000000 0.024544 0.582121 -4.829545 0.019802 0.522903 -4.337233 0.004952 0.261633 -2.168575 0.000001 0.000001 -0.000000 0.348675 4.623473 -4.333844 0.006417 -3.531539 -4.846557 0.004951 0.261632 -2.168577 -0.000003 0.000000 -0.000000 4.075276 10.837620 -1.273986 39.575386 23.991651 48.140348 -0.000030 78.769805 0.000039 15.527839 -10.674254 15.837602 -1.866112 -5.027626 -6.810737 5.656945 -20.155316 -0.988049 -0.746725 -5.607850 -2.703651 -0.000004 0.000001 0.000000 0.457063 -2.483769 20.850843 0.424254 -2.395915 20.080030 0.106823 -1.216592 10.035577 0.000001 0.000000 -0.000000 0.457064 -2.483769 20.850841 0.424252 -2.395917 20.080025 0.106820 -1.216588 10.035574 0.000000 -0.000001 0.000001 0.457063 -2.483770 20.850839 0.424253 -2.395914 20.080034 0.106824 -1.216593 10.035577 -0.000001 -0.000002 -0.000003 0.457063 -2.483769 20.850841 0.424249 -2.395921 20.080027 0.106826 -1.216591 10.035574 0.000001 -0.000001 -0.000001 -4.302334 7.849672 2.402408 9.776123 4.948016 3.387167 -0.571339 1.913661 -6.656093 -0.164145 -0.000002 0.000001 -0.000000 -0.000000 -0.000000 -5.915726 -12.067931 -2.835434 14.539963 -9.395396 -4.955833 -5.234407 -3.057774 4.194895 -0.381245 -0.000001 -0.000001 -0.000000 -0.000001 -0.000000 
-1.095913 96.903542 -3.513543 -4.171857 -5.593451 2.041762 3.941711 -1.141061 -2.103029 7.899677 -2.228841 -1.979579 7.881745 -2.259134 -2.017287 -9.517463 2.318455 0.921297 -2.337322 12.573400 0.768872 0.000000 0.000000 -0.000000 0.720230 2.537681 -10.197111 29.839420 -41.648608 -32.075207 -0.000019 -36.863730 -0.000010 -29.481268 31.077975 -6.433579 -1.581197 6.730917 6.595458 4.986774 21.133606 1.692516 0.015592 8.152060 3.175572 0.000002 -0.000002 -0.000002 0.021789 0.548645 -4.551132 0.017363 0.489741 -4.061707 0.004344 0.245022 -2.030815 0.000002 -0.000002 0.000003 0.021642 0.546718 -4.535157 0.017496 0.491664 -4.077680 0.004344 0.245033 -2.030797 -0.000003 -0.000001 0.000001 0.021789 0.548645 -4.551131 0.017366 0.489741 -4.061706 0.004347 0.245023 -2.030820 -0.000000 -0.000001 0.000001 0.326222 4.591521 -4.054375 0.003673 -3.564690 -4.571241 0.004347 0.245031 -2.030806 -0.000002 0.000002 -0.000001 3.928679 10.390191 -1.074681 38.535125 25.097573 46.250520 -0.000078 75.401737 0.000095 15.430343 -7.858606 18.578082 -1.860768 -4.618693 -6.747115 5.576878 -19.207482 -0.931561 -0.787870 -5.135221 -2.655374 -0.000002 -0.000000 0.000001 0.330787 -2.123041 17.709603 0.277244 -1.947557 16.202083 0.069626 -0.983581 8.098692 0.000000 -0.000002 -0.000001 0.330788 -2.123041 17.709601 0.277242 -1.947554 16.202085 0.069622 -0.983585 8.098694 -0.000001 0.000001 -0.000000 0.330780 -2.123038 17.709606 0.277245 -1.947559 16.202076 0.069627 -0.983582 8.098694 -0.000000 -0.000000 0.000002 0.330787 -2.123041 17.709601 0.277244 -1.947555 16.202083 0.069628 -0.983581 8.098694 -0.000001 0.000000 -0.000001 -4.548593 7.108987 2.105724 10.422220 5.743215 3.269222 -0.887253 1.992359 -6.427231 -0.139346 0.000001 -0.000002 0.000000 -0.000000 -0.000000 -6.271101 -11.899538 -3.238475 15.115538 -9.374402 -5.046920 -5.280981 -3.579104 4.608293 -0.317059 -0.000023 0.000001 0.000000 -0.000001 -0.000000 
-0.581100 96.634796 -3.575420 -4.137785 -5.358341 1.989286 3.880254 -1.051307 -2.123103 7.789347 -2.062365 -1.988818 7.773176 -2.093670 -2.021602 -9.469697 2.200166 0.880472 -2.232828 11.937971 0.768234 -0.000000 0.000000 0.000000 0.737993 2.303677 -9.753751 30.338529 -42.537735 -31.633669 -0.000003 -36.610012 0.000009 -28.247992 31.543552 -7.475485 -1.583206 6.844484 6.612469 5.001776 21.337340 1.705694 0.024277 8.253674 3.184953 0.000001 0.000001 -0.000005 0.019629 0.520604 -4.318062 0.015468 0.462028 -3.831477 0.003861 0.231142 -1.915707 0.000001 0.000002 -0.000000 0.019481 0.518681 -4.302077 0.015591 0.463942 -3.847475 0.003861 0.231143 -1.915700 0.000002 0.000001 -0.000000 0.019629 0.520604 -4.318061 0.015463 0.462028 -3.831475 0.003862 0.231143 -1.915704 0.000003 -0.000001 0.000000 0.307550 4.564677 -3.820419 0.001530 -3.592370 -4.341177 0.003861 0.231143 -1.915706 -0.000002 0.000001 -0.000001 3.787570 9.958985 -0.820556 37.717848 26.206278 45.016523 -0.000014 71.632381 0.000028 13.627877 -5.860921 19.332263 -1.855282 -4.157147 -6.675399 5.490844 -18.196888 -0.870156 -0.832135 -4.631302 -2.603557 -0.000002 -0.000000 0.000000 0.207784 -1.690413 14.014353 0.148223 -1.430897 11.827716 0.037149 -0.719288 5.912947 -0.000001 -0.000001 -0.000000 0.207785 -1.690412 14.014353 0.148226 -1.430896 11.827716 0.037147 -0.719289 5.912944 -0.000000 0.000001 -0.000003 0.207779 -1.690408 14.014352 0.148229 -1.430903 11.827713 0.037151 -0.719286 5.912943 -0.000001 -0.000000 0.000002 0.207784 -1.690413 14.014353 0.148223 -1.430899 11.827711 0.037153 -0.719286 5.912948 0.000001 -0.000001 0.000001 -5.124256 6.405745 1.915430 11.416387 6.426748 3.192451 -1.348807 2.056964 -6.244586 -0.117073 -0.000003 0.000001 0.000000 0.000000 -0.000000 -6.763766 -11.545122 -3.456618 15.858492 -9.355865 -5.210312 -5.406494 -4.374352 5.044575 -0.178874 -0.000003 0.000000 -0.000000 0.000001 0.000000 
-0.112069 96.365776 -3.645720 -4.095682 -5.044203 1.888640 3.785003 -0.911524 -2.156026 7.604845 -1.791017 -2.032951 7.590031 -1.823160 -2.062265 -9.268038 2.019093 0.879812 -2.456279 11.042717 1.170619 -0.000000 -0.000000 0.000000 0.759516 1.980217 -8.976545 30.856544 -43.642546 -31.248153 -0.000003 -36.224735 -0.000007 -27.974937 31.483716 -7.871489 -1.585024 6.945862 6.627674 5.015110 21.518272 1.717341 0.031945 8.343908 3.193265 0.000001 0.000001 0.000000 0.017924 0.497479 -4.125921 0.013981 0.439285 -3.642602 0.003500 0.219760 -1.821271 -0.000003 0.000002 -0.000001 0.017791 0.495556 -4.109944 0.014096 0.441211 -3.658580 0.003503 0.219761 -1.821275 0.000000 0.000002 -0.000001 0.017924 0.497479 -4.125921 0.013982 0.439285 -3.642601 0.003503 0.219756 -1.821278 0.000003 -0.000002 0.000002 0.292239 4.542502 -3.627560 -0.000156 -3.615108 -4.152411 0.003501 0.219757 -1.821280 -0.000004 0.000001 -0.000000 3.649566 9.568560 -0.342608 36.998660 27.103574 44.341100 0.000045 67.644336 -0.000048 11.059856 -4.526611 18.298369 -1.850260 -3.686079 -6.602310 5.405264 -17.199395 -0.808308 -0.876265 -4.133937 -2.552091 0.000001 -0.000000 0.000000 0.108753 -1.227376 10.125685 0.059918 -0.912739 7.511663 0.014991 -0.457333 3.755609 0.000002 0.000000 -0.000000 0.108754 -1.227375 10.125684 0.059915 -0.912738 7.511664 0.014990 -0.457335 3.755614 0.000002 -0.000000 -0.000001 0.108753 -1.227376 10.125685 0.059915 -0.912737 7.511662 0.014992 -0.457334 3.755606 0.000001 -0.000002 0.000001 0.108753 -1.227376 10.125684 0.059917 -0.912739 7.511663 0.014995 -0.457331 3.755611 0.000001 -0.000001 -0.000001 -5.750382 5.840049 1.840497 12.410654 6.889737 2.991756 -1.783841 2.101973 -5.975819 -0.097664 -0.000003 -0.000000 0.000000 -0.000001 0.000000 -7.178916 -10.994290 -3.551604 16.544274 -9.342873 -5.341187 -5.501228 -5.438535 5.450343 -0.018108 0.000012 0.000001 -0.000000 0.000002 0.000000 
